<svg xmlns="http://www.w3.org/2000/svg" width="90.823" height="28.531" viewBox="0 0 90.823 28.531">
  <path id="logo" d="M1912.533,1138.638l-1.48,6.662a.694.694,0,0,1-.677.543h-2.106a.694.694,0,0,1-.693-.731c0-.086.005-.121.005-.123.1-2.173-1.271-3.8-4.375-3.8-5.161,0-8.914,4.236-9.406,9.8-.508,5.745,3.507,9.083,9.066,9.082a21.41,21.41,0,0,0,6.371-.951.7.7,0,0,1,.893.794l-.653,3.443a.811.811,0,0,1-.553.623,31.215,31.215,0,0,1-9.233,1.216c-11.632,0-16.351-6.689-15.621-13.509.65-6.074,4.669-15.02,20.514-15.023a27.3,27.3,0,0,1,7.374,1.01A.811.811,0,0,1,1912.533,1138.638Zm-66.134-.945-.385,1.738a.76.76,0,0,0,.522.892l0,0a.754.754,0,0,1,.235,1.383l-9.733,8.088,0,0,1.671-7.622a2.583,2.583,0,0,1,1.8-1.841l.1-.03a.752.752,0,0,0,.513-.556l.4-1.805a.686.686,0,0,0-.67-.834H1828.3a.755.755,0,0,0-.738.592l-.406,1.829a.748.748,0,0,0,.489.87l.125.043c.787.309,1.7,1,1.315,2.828l-2.992,13.695c-.783,3.74-2.051,4.5-3.26,4.644l-.039,0a.76.76,0,0,0-.659.592l-.388,1.755a.725.725,0,0,0,.708.882h13.191a.689.689,0,0,0,.672-.54l.456-2.053a.7.7,0,0,0-.425-.8l-.085-.034c-.668-.271-1.579-.848-1.346-1.936l1.533-7h0c5.251,9.6,6.992,12.365,13.3,12.364h5.693a.688.688,0,0,0,.67-.537l.4-1.779a.738.738,0,0,0-.7-.9c-1.424-.022-2.123-.352-3.54-2.174l-7.309-9.892v0l9.5-7.9a7.624,7.624,0,0,1,3.69-1.392l.086-.009a.7.7,0,0,0,.617-.542l.388-1.756a.7.7,0,0,0-.68-.846h-11.427A.75.75,0,0,0,1846.4,1137.693Zm35.145,7.607h2.222a.692.692,0,0,0,.675-.542l1.511-6.811a.693.693,0,0,0-.677-.843h-23.368a.756.756,0,0,0-.739.593l-.4,1.825a.723.723,0,0,0,.463.838l.078.028a2.175,2.175,0,0,1,1.374,2.868L1858.1,1164a.69.69,0,0,0,.673.839h10.51a.69.69,0,0,0,.674-.542l.459-2.071a.657.657,0,0,0-.374-.743l-.1-.047a2.169,2.169,0,0,1-1.327-2.531c.036-.195,1.03-4.695,1.03-4.695h8.937a.692.692,0,0,0,.677-.543l.841-3.788a.694.694,0,0,0-.677-.845h-8.631l1.611-7.345,6.029-.006c1.949,0,2.544,1.017,2.43,2.752,0,0,0,.023-.009.092A.7.7,0,0,0,1881.544,1145.3Z" transform="translate(-1821.729 -1136.668)" fill="#fff"/>
</svg>
